<?xml version="1.0" standalone="no"?><!DOCTYPE svg PUBLIC "-//W3C//DTD SVG 1.1//EN" "http://www.w3.org/Graphics/SVG/1.1/DTD/svg11.dtd"><svg t="1547537967161" class="icon" style="" viewBox="0 0 1024 1024" version="1.1" xmlns="http://www.w3.org/2000/svg" p-id="9314" xmlns:xlink="http://www.w3.org/1999/xlink" width="200" height="200"><defs><style type="text/css"></style></defs><path d="M512 958.38049c-71.803349 0-130.229017-58.415434-130.229017-130.229017 0-11.392468 9.227152-20.629853 20.629853-20.629853 11.402701 0 20.629853 9.237385 20.629853 20.629853 0 49.057299 39.910988 88.968288 88.968288 88.968288s88.968288-39.910988 88.968288-88.968288c0-11.392468 9.227152-20.629853 20.629853-20.629853s20.629853 9.237385 20.629853 20.629853C642.227993 899.965056 583.803349 958.38049 512 958.38049z" p-id="9315"></path><path d="M862.714663 832.579319 161.285337 832.579319c-11.402701 0-20.629853-8.645914-20.629853-20.038382 0-11.392468 9.227152-20.334117 20.629853-20.334117 18.192338 0 41.240263-54.691623 41.240263-88.306208l21.980617-283.531542c16.842597-139.063219 78.370929-230.996025 178.338734-267.683599 9.085936-51.082422 53.28867-89.24151 106.293885-89.24151 51.656497 0 95.556333 36.827767 105.709577 86.157265 108.308775 36.053124 173.624363 131.069151 184.402847 269.14488l21.919219 283.768949c0.039909 0.534166 0.060375 1.143033 0.060375 1.677199 0 33.584909 23.047926 88.479147 41.240263 88.479147l0.2415 0c11.402701 0 20.629853 8.562003 20.629853 19.954471S874.117364 832.579319 862.714663 832.579319zM219.22698 792.670377l585.968665 0c-16.963347-29.67588-25.00244-67.324338-25.223474-87.621617l-21.858844-283.063891c-9.751085-124.990712-69.224618-209.04406-167.459966-236.624209-8.401344-2.366907-14.424524-9.781784-15.008832-18.495236-2.337231-34.843576-31.549553-62.138222-66.50467-62.138222-35.760458 0-65.053622 28.222785-66.665329 64.265676-0.382717 8.692986-6.184863 16.196891-14.505365 18.775622-92.191702 28.577872-146.82909 108.238167-162.402787 236.764402l-21.839401 281.201473C243.765863 725.478046 236.110509 762.994498 219.22698 792.670377z" p-id="9316"></path></svg>