<?xml version="1.0" standalone="no"?><!DOCTYPE svg PUBLIC "-//W3C//DTD SVG 1.1//EN" "http://www.w3.org/Graphics/SVG/1.1/DTD/svg11.dtd"><svg t="1547624104130" class="icon" style="" viewBox="0 0 1024 1024" version="1.1" xmlns="http://www.w3.org/2000/svg" p-id="20304" xmlns:xlink="http://www.w3.org/1999/xlink" width="200" height="200"><defs><style type="text/css"></style></defs><path d="M888.8 193h-754c-39.2 0-71 31.9-71 71v496.7c0 39.2 31.9 71 71 71h753.9c39.2 0 71-31.9 71-71V264c0.1-39.1-31.8-71-70.9-71z m0 64c1.4 0 2.7 0.4 3.8 1.1L530.3 514.9c-11.1 7.9-26 7.9-37.2 0L130.7 258.4c1.2-0.9 2.6-1.4 4.2-1.4h753.9z m0 510.8h-754c-3.8 0-7-3.2-7-7v-426l328.4 232.4c16.6 11.8 36.1 17.6 55.5 17.6 19.5 0 39-5.9 55.6-17.7l328.4-232.9v426.5c0.1 3.9-3.1 7.1-6.9 7.1z" p-id="20305"></path></svg>