<?xml version="1.0" standalone="no"?><!DOCTYPE svg PUBLIC "-//W3C//DTD SVG 1.1//EN" "http://www.w3.org/Graphics/SVG/1.1/DTD/svg11.dtd"><svg t="1547536963378" class="icon" style="" viewBox="0 0 1024 1024" version="1.1" xmlns="http://www.w3.org/2000/svg" p-id="6198" xmlns:xlink="http://www.w3.org/1999/xlink" width="200" height="200"><defs><style type="text/css"></style></defs><path d="M984.22 567.56a27.76 27.76 0 0 0-27.78 27.78v305.55a55.63 55.63 0 0 1-55.56 55.56H123.11a55.63 55.63 0 0 1-55.56-55.56V123.11a55.63 55.63 0 0 1 55.56-55.56h305.56a27.78 27.78 0 0 0 0-55.56H123.11A111.22 111.22 0 0 0 12 123.11v777.78A111.22 111.22 0 0 0 123.11 1012h777.78A111.22 111.22 0 0 0 1012 900.89V595.33a27.76 27.76 0 0 0-27.78-27.77z" p-id="6199"></path><path d="M1009.86 29.17A27.88 27.88 0 0 0 984.22 12H595.33a27.78 27.78 0 0 0 0 55.56h321.83l-674.8 674.8a27.77 27.77 0 1 0 39.28 39.28l674.8-674.8v321.83a27.78 27.78 0 0 0 55.56 0V39.78a27.77 27.77 0 0 0-2.14-10.61z" p-id="6200"></path></svg>