<?xml version="1.0" standalone="no"?><!DOCTYPE svg PUBLIC "-//W3C//DTD SVG 1.1//EN" "http://www.w3.org/Graphics/SVG/1.1/DTD/svg11.dtd"><svg t="1547608054050" class="icon" style="" viewBox="0 0 1024 1024" version="1.1" xmlns="http://www.w3.org/2000/svg" p-id="14822" xmlns:xlink="http://www.w3.org/1999/xlink" width="200" height="200"><defs><style type="text/css"></style></defs><path d="M512.3 882.3c-40.3 0-78.1-18.9-100.9-50.4L113.3 420.3c-19.6-27-21.5-61.7-5.1-90.6l88.5-155.9c15.9-27.9 46.4-45.2 79.6-45.2h472c33.2 0 63.7 17.3 79.6 45.2l88.5 155.9c16.4 28.9 14.4 63.6-5.1 90.6L725.7 676.5c-8.1 11.2-23.7 13.7-34.9 5.6s-13.7-23.7-5.6-34.9l185.6-256.3c7.9-10.9 8.7-25 2.1-36.6l-88.5-155.9c-7-12.3-20.8-19.9-36.1-19.9h-472c-15.3 0-29.1 7.6-36.1 19.9l-88.5 155.9c-6.6 11.6-5.8 25.6 2.1 36.6l298.1 411.6c13.7 18.9 35.7 29.8 60.4 29.8 24.7 0 46.7-10.8 60.4-29.8l40.5-55.9c8.1-11.2 23.7-13.7 34.9-5.6s13.7 23.7 5.6 34.9l-40.5 55.9c-22.9 31.7-60.6 50.5-100.9 50.5z" p-id="14823"></path><path d="M512.3 726.1c-18.2 0-35.2-8.6-45.6-22.9L344 533.8c-8.1-11.2-5.6-26.8 5.6-34.9 11.2-8.1 26.8-5.6 34.9 5.6l122.6 169.4c1.5 2 4.1 2.3 5.1 2.3s3.6-0.2 5.1-2.3L640 504.5c8.1-11.2 23.7-13.7 34.9-5.6s13.7 23.7 5.6 34.9L557.9 703.1c-10.4 14.4-27.5 23-45.6 23z" p-id="14824"></path></svg>